<svg xmlns="http://www.w3.org/2000/svg" version="1.1" xmlns:xlink="http://www.w3.org/1999/xlink" width="512" height="512"><svg width="512" height="512" viewBox="0 0 512 512" fill="none" xmlns="http://www.w3.org/2000/svg">
<path d="M236.134 384.162V364.093C242.945 363.849 248.175 362.633 251.824 360.444C255.473 358.254 258.027 354.606 259.487 349.497C260.946 344.145 261.676 336.726 261.676 327.239V183.107C261.676 176.539 261.798 170.457 262.041 164.862C262.528 159.267 262.893 154.888 263.136 151.726C259 151.969 254.257 152.213 248.905 152.456C243.553 152.456 193.668 149.293 190.505 149.537V128.373C206.074 128.13 267.393 128.373 283.205 128.373C299.017 128.373 314.95 128.251 331.006 128.008C359.71 127.765 382.455 132.995 399.24 143.698C416.025 154.402 423.931 170.822 422.958 192.959C422.715 200.257 420.526 207.433 416.39 214.487C412.255 221.542 406.173 227.867 398.146 233.462C390.118 239.057 380.023 243.314 367.86 246.233V246.598C392.915 249.274 411.525 256.815 423.688 269.221C435.851 281.384 441.933 295.615 441.933 311.913C441.933 327.482 438.162 340.618 430.621 351.322C423.08 362.025 412.62 370.174 399.24 375.769C386.104 381.364 371.144 384.162 354.359 384.162H236.134ZM306.193 361.903C310.328 362.147 314.585 362.268 318.964 362.268C323.586 362.268 327.965 362.268 332.1 362.268C336.236 362.025 339.763 361.903 342.682 361.903C358.737 361.417 370.9 356.795 379.171 348.038C387.685 339.037 391.942 326.995 391.942 311.913C391.942 299.507 389.388 289.777 384.28 282.722C379.415 275.667 372.968 270.681 364.94 267.761C357.156 264.842 348.764 263.383 339.763 263.383C333.195 263.383 327.478 263.383 322.613 263.383C317.748 263.383 312.761 263.626 307.653 264.113V331.253C307.653 337.821 307.531 343.78 307.288 349.132C307.044 354.484 306.68 358.741 306.193 361.903ZM307.653 241.854L329.181 241.489C340.614 241.246 349.615 238.813 356.183 234.191C362.751 229.326 367.495 223.123 370.414 215.582C373.333 207.798 374.793 199.405 374.793 190.404C374.549 179.701 372.117 171.43 367.495 165.592C363.116 159.51 357.643 155.253 351.075 152.821C344.507 150.388 337.695 149.293 330.641 149.537C325.532 149.537 321.275 150.266 317.87 151.726C314.464 153.186 311.91 156.226 310.207 160.848C308.504 165.47 307.653 172.403 307.653 181.647V241.854Z" fill="#0751CF"></path>
<path d="M70 384.162V363.363C76.8113 363.363 82.2847 361.417 86.4201 357.525C90.5555 353.632 93.9612 348.524 96.6371 342.199C99.3129 335.631 102.11 328.333 105.03 320.306L178.373 128.738H197.347L276.528 323.955C277.988 328.09 279.934 333.928 282.367 341.469C284.799 349.01 286.137 355.578 286.38 361.173C290.516 360.93 294.53 360.687 298.422 360.444C302.314 360.2 302.581 362.5 305.5 362.5L308.639 384.162H215.592V364.093C223.133 364.093 228.241 362.511 230.917 359.349C233.593 356.187 234.688 352.051 234.201 346.943C233.958 341.834 232.741 336.604 230.552 331.252L221.43 306.44L136.775 307.899L128.747 332.347C127.288 336.482 125.585 341.226 123.639 346.578C121.693 351.686 119.747 356.308 117.801 360.444C122.179 360.2 126.923 359.957 132.032 359.714C137.383 359.471 141.64 359.349 144.803 359.349V384.162H70ZM144.803 284.546H213.402L193.698 230.907C190.779 222.636 187.981 214.366 185.306 206.095C182.873 197.581 180.805 189.796 179.102 182.742H178.373C176.913 187.607 175.089 193.932 172.899 201.716C170.953 209.5 168.156 218.379 164.507 228.353L144.803 284.546Z" fill="#0751CF"></path>
</svg><style>@media (prefers-color-scheme: light) { :root { filter: none; } }
@media (prefers-color-scheme: dark) { :root { filter: none; } }
</style></svg>